# xmcd CD database file
#
# Track frame offsets:
#	150
#	25047
#	49115
#	63263
#	76548
#	89261
#	102260
#	115099
#	129052
#	141313
#	155928
#	169672
#
# Disc length: 2448 seconds
#
# Revision: 0
# Processed by: cddbd v1.5.1PL0 Copyright (c) Steve Scherf et al.
# Submitted via: CDex 1.51
#
DISCID=8e098e0c
DTITLE=Fats Navarro - Prime Source [CD1]
DYEAR=1975
DGENRE=Jazz
TTITLE0=Double Talk
TTITLE1=Double Talk - Alternative Master
TTITLE2=Boperation
TTITLE3=The Skunk
TTITLE4=52nd Street Theme
TTITLE5=Dance Of The Infidels
TTITLE6=Dance Of The Infidels - Alternative Master
TTITLE7=Wail
TTITLE8=Wail - Alternative Master
TTITLE9=Bouncing With Bud - Alternative Master 1
TTITLE10=Bouncing With Bud
TTITLE11=Bouncing With Bud - Alternative Master 2
EXTD=YEAR: 1975
EXTT0=
EXTT1=
EXTT2=
EXTT3=
EXTT4=
EXTT5=
EXTT6=
EXTT7=
EXTT8=
EXTT9=
EXTT10=
EXTT11=
PLAYORDER=
